<?xml version="1.0" standalone="no"?>
<!DOCTYPE svg PUBLIC "-//W3C//DTD SVG 20010904//EN"
 "http://www.w3.org/TR/2001/REC-SVG-20010904/DTD/svg10.dtd">
<svg version="1.0" xmlns="http://www.w3.org/2000/svg"
 width="400.000000pt" height="400.000000pt" viewBox="0 0 400.000000 400.000000"
 preserveAspectRatio="xMidYMid meet">
<metadata>
Created by potrace 1.14, written by Peter Selinger 2001-2017
</metadata>
<g transform="translate(0.000000,400.000000) scale(0.100000,-0.100000)"
fill="#000000" stroke="none">
<path d="M2480 3638 c0 -5 -4 -7 -9 -3 -6 3 -26 -4 -45 -15 -20 -11 -36 -17
-36 -13 0 4 -5 2 -12 -5 -7 -7 -20 -12 -30 -12 -10 0 -18 -3 -18 -8 0 -4 -17
-12 -37 -19 -21 -6 -56 -20 -78 -29 -22 -10 -42 -18 -45 -19 -3 0 -27 -11 -53
-23 -26 -11 -63 -24 -82 -28 -22 -4 -36 -13 -41 -27 -4 -12 -8 -125 -8 -250
-1 -244 -2 -249 -52 -239 -16 3 -24 11 -25 26 0 11 -3 86 -5 166 -5 165 -9
174 -89 186 -25 3 -45 9 -45 13 0 9 -124 1 -137 -9 -2 -2 -6 -3 -10 -4 -5 -1
-23 -10 -40 -19 -18 -10 -35 -17 -38 -17 -3 0 -21 -7 -41 -15 -20 -8 -42 -15
-48 -15 -6 0 -23 -8 -36 -17 -14 -10 -25 -16 -25 -15 0 7 -41 -12 -59 -27 -10
-9 -21 -16 -25 -16 -3 0 -5 -6 -5 -12 1 -7 -2 -11 -6 -8 -7 4 -5 -121 3 -332
4 -93 16 -78 -103 -121 -83 -30 -167 -70 -175 -81 -3 -6 -9 -30 -13 -53 -7
-37 -11 -43 -32 -44 -14 0 -38 4 -54 9 -35 12 -96 -13 -97 -40 0 -10 -3 -62
-5 -116 l-5 -98 35 -34 35 -33 -57 -26 c-31 -15 -64 -30 -72 -35 -12 -7 -16
-38 -18 -165 -2 -130 -5 -156 -17 -156 -8 0 -15 -5 -15 -10 0 -6 -3 -9 -7 -8
-9 1 -35 -9 -116 -45 -29 -13 -79 -34 -112 -47 -33 -13 -63 -28 -66 -33 -3 -5
-9 -8 -13 -7 -11 3 -69 -23 -83 -36 -17 -16 -11 -347 6 -368 10 -12 65 -31 84
-27 4 0 7 -4 7 -10 0 -5 4 -8 9 -4 5 3 12 1 15 -4 3 -4 20 -11 37 -15 17 -3
45 -12 62 -20 18 -8 43 -16 57 -19 22 -4 90 -26 145 -48 55 -21 114 -37 119
-31 3 3 6 0 6 -6 0 -7 7 -12 15 -12 9 0 44 -9 78 -20 94 -29 108 -30 170 -5
39 16 58 20 59 12 1 -7 2 -128 2 -269 1 -222 3 -259 17 -273 9 -9 22 -18 30
-19 8 -2 21 -6 29 -9 19 -8 112 -39 125 -42 40 -8 72 -19 83 -28 6 -5 12 -7
12 -4 0 3 31 -6 69 -18 119 -41 140 -41 225 1 42 20 76 40 76 46 0 5 4 7 9 3
11 -6 143 58 160 79 7 8 13 26 14 40 2 25 40 70 51 59 3 -4 6 -1 6 6 0 7 5 9
10 6 6 -3 13 1 16 9 3 9 9 14 13 12 3 -2 33 11 66 30 33 19 68 37 78 40 9 4
17 11 17 17 0 6 3 7 7 4 3 -4 12 -2 20 4 7 6 57 12 110 13 97 2 99 3 188 51
50 26 98 53 107 59 21 13 34 66 33 134 -1 31 3 52 9 52 6 0 5 4 -2 9 -11 6
-10 11 3 25 9 9 20 14 25 11 5 -3 10 -1 12 4 3 8 126 74 140 76 3 0 10 4 15 8
4 5 23 15 41 22 17 8 32 18 32 22 0 5 10 9 21 10 12 1 30 10 40 19 11 9 19 13
19 8 0 -5 7 0 15 10 8 11 15 17 15 13 0 -9 96 41 109 57 13 15 7 226 -7 235
-18 11 6 50 47 76 22 14 44 25 49 25 4 0 18 9 30 20 12 12 22 18 22 15 0 -8
93 46 102 60 4 5 8 6 8 2 0 -4 19 4 43 18 23 14 50 28 60 31 9 4 17 11 17 16
0 5 4 6 10 3 5 -3 19 6 32 20 25 28 34 119 14 144 -7 9 -7 12 -1 9 8 -5 10 55
10 185 -2 228 -1 222 -20 240 -9 9 -16 43 -19 88 -2 41 -8 82 -11 91 -8 20
-35 30 -83 33 -18 0 -36 5 -40 11 -4 5 -18 9 -32 10 -29 1 -62 8 -145 30 -33
8 -70 15 -82 15 -13 -1 -23 4 -23 10 0 8 -5 7 -15 -1 -13 -11 -15 -6 -16 34
-1 25 -2 49 -3 54 -8 32 -20 52 -32 52 -20 0 -26 1 -52 11 -12 5 -35 11 -50
14 -15 3 -32 7 -39 9 -7 1 -16 5 -20 9 -4 4 -9 137 -10 295 -3 224 -7 290 -17
301 -8 7 -34 17 -57 22 -24 4 -55 11 -69 15 -14 3 -40 7 -57 8 -18 0 -33 4
-33 7 0 3 -6 6 -12 7 -15 1 -62 10 -98 18 -14 3 -38 8 -55 11 -16 2 -37 7 -45
10 -25 10 -70 10 -70 1z"/>
</g>
</svg>
